<mxfile host="app.diagrams.net" modified="2024-09-03T06:19:04.619Z" agent="Mozilla/5.0 (Windows NT 10.0; Win64; x64) AppleWebKit/537.36 (KHTML, like Gecko) Chrome/126.0.0.0 Safari/537.36" version="24.4.0" etag="7gLW-2PQ2g95gAcYuhjB" type="github">
  <diagram name="Strona-1" id="PFZMieOJ8BuyVJ-Ck4ev">
    <mxGraphModel>
      <root>
        <mxCell id="0" />
        <mxCell id="1" parent="0" />
      </root>
    </mxGraphModel>
  </diagram>
</mxfile>
